<svg width="120" height="27" viewBox="0 0 120 27" fill="none" xmlns="http://www.w3.org/2000/svg">
<g clip-path="url(#clip0_12831_8075)">
<path d="M41.9596 20.7027L39.454 22.1499H30.1876V7.0299H39.454L41.9596 8.4771V20.7027ZM33.2116 9.6219V19.5579H38.9356V9.6219H33.2116ZM55.4142 20.8107L52.9086 22.2579H48.3078L45.8022 20.8107V12.6891L48.3078 11.2419H52.9086L55.4142 12.6891V20.8107ZM48.7614 13.7691V19.7307H52.455V13.7691H48.7614ZM61.9976 13.8771V19.6227H67.3544V22.1499H61.544L59.0384 20.7027V12.7971L61.544 11.3499H67.3544V13.8771H61.9976ZM69.6808 13.8771V11.3499H71.668V9.5355L74.6272 7.8291V11.3499H77.0032V13.8771H74.6272V19.6227H77.0032V22.1499H74.1736L71.668 20.7027V13.8771H69.6808ZM83.1542 22.1499H80.195V6.3819H83.1542V12.1275L84.6878 11.2419H87.5174L90.023 12.6891V22.1499H87.0638V13.7691H83.1542V22.1499ZM100.338 13.8771H96.6224V22.1499H93.6632V11.3499H96.104L96.6224 12.2355L98.156 11.3499H100.338V13.8771ZM102.891 20.8107V11.3499H105.851V19.7307H109.544V11.3499H112.504V22.2579H110.063L109.544 21.3723L108.011 22.2579H105.397L102.891 20.8107Z" fill="#525252"/>
<rect x="5.39844" y="3.375" width="17.55" height="20.25" rx="1.35" fill="#262626"/>
<path d="M16.5359 10.125L18.8984 13.0781L16.5359 16.0312" stroke="#FFC117" stroke-width="1.62"/>
<path d="M11.8117 10.125L9.44922 13.0781L11.8117 16.0312" stroke="#FFC117" stroke-width="1.62"/>
</g>
<defs>
<clipPath id="clip0_12831_8075">
<rect width="120" height="27" fill="white"/>
</clipPath>
</defs>
</svg>
