<svg width="320" height="72" viewBox="0 0 320 72" fill="none" xmlns="http://www.w3.org/2000/svg">
<g clip-path="url(#clip0_4711_53453)">
<path d="M111.89 53.5412L105.208 57.4004H80.4976V17.0804H105.208L111.89 20.9396V53.5412ZM88.5616 23.9924V50.4884H103.826V23.9924H88.5616ZM147.769 53.8292L141.087 57.6884H128.818L122.137 53.8292V32.1716L128.818 28.3124H141.087L147.769 32.1716V53.8292ZM130.028 35.0516V50.9492H139.877V35.0516H130.028ZM165.324 35.3396V50.6612H179.609V57.4004H164.115L157.433 53.5412V32.4596L164.115 28.6004H179.609V35.3396H165.324ZM185.813 35.3396V28.6004H191.112V23.762L199.003 19.2116V28.6004H205.339V35.3396H199.003V50.6612H205.339V57.4004H197.794L191.112 53.5412V35.3396H185.813ZM221.742 57.4004H213.851V15.3524H221.742V30.674L225.832 28.3124H233.377L240.059 32.1716V57.4004H232.168V35.0516H221.742V57.4004ZM267.564 35.3396H257.657V57.4004H249.766V28.6004H256.275L257.657 30.962L261.747 28.6004H267.564V35.3396ZM274.375 53.8292V28.6004H282.266V50.9492H292.116V28.6004H300.007V57.6884H293.498L292.116 55.3268L288.026 57.6884H281.056L274.375 53.8292Z" fill="#525252"/>
<rect x="14.3984" y="9" width="46.8" height="54" rx="3.6" fill="#262626"/>
<path d="M44.0984 27L50.3984 34.875L44.0984 42.75" stroke="#FFC117" stroke-width="4.32"/>
<path d="M31.4992 27L25.1992 34.875L31.4992 42.75" stroke="#FFC117" stroke-width="4.32"/>
</g>
<defs>
<clipPath id="clip0_4711_53453">
<rect width="320" height="72" fill="white"/>
</clipPath>
</defs>
</svg>
